<svg xmlns="http://www.w3.org/2000/svg" style="enable-background:new 0 0 188.5 62.2" xml:space="preserve" viewBox="143.1 0 44.4 42.82"><path fill="#B42DFB" d="M163.9 0c-8.9 0-16.4 6.2-18.3 14.6 3.1-5.3 8.7-9 15.2-9.3 2.4-1.1 5.1-1.7 7.9-1.7 3.1 0 6.1.8 8.6 2.1-3.4-3.5-8.1-5.7-13.4-5.7"/><path fill="#D3FB31" d="M145.6 14.6c-1.6 2.8-2.5 6-2.5 9.4 0 10.4 8.4 18.8 18.8 18.8 2.8 0 5.5-.6 7.9-1.7h-1.1c-5.2 0-10-2.2-13.4-5.6-6-3.1-10.1-9.4-10.1-16.6 0-1.6.1-3 .4-4.3"/><path fill="#981402" d="M160.8 5.2c-6.5.4-12.1 4-15.2 9.3-.3 1.3-.5 2.7-.5 4.2 0 7.2 4.1 13.5 10.1 16.6-3.3-3.4-5.4-8-5.4-13.1.1-7.5 4.6-14 11-17"/><path fill="#00D9FD" d="M177.3 5.6c3.3 3.4 5.4 8 5.4 13.1 0 3.4-.9 6.6-2.5 9.4-1.3 5.7-5.2 10.5-10.4 12.9 9.9-.6 17.7-8.7 17.7-18.7-.1-7.3-4.2-13.5-10.2-16.7"/><path fill="#1922FA" d="M168.7 3.5c-2.8 0-5.5.6-7.9 1.7h1.1c10.4 0 18.8 8.4 18.8 18.8 0 1.4-.2 2.8-.5 4.2 1.6-2.8 2.5-6 2.5-9.4 0-5.1-2-9.7-5.4-13.1-2.6-1.4-5.5-2.2-8.6-2.2"/><path fill="#00D728" d="M180.1 28.1c-3.2 5.6-9.3 9.4-16.2 9.4-3.1 0-6.1-.8-8.6-2.1 3.4 3.5 8.1 5.6 13.4 5.6h1.1c5.1-2.4 9-7.1 10.3-12.9"/><path d="M161.9 5.2h-1.1c-6.4 3-10.9 9.5-10.9 17 0 5.1 2 9.7 5.4 13.1 2.6 1.3 5.5 2.1 8.6 2.1 6.9 0 13-3.8 16.2-9.4.3-1.3.5-2.7.5-4.2 0-10.2-8.4-18.6-18.7-18.6"/></svg>