<?xml version="1.0" encoding="utf-8"?>
<!-- Generator: Adobe Illustrator 24.0.0, SVG Export Plug-In . SVG Version: 6.00 Build 0)  -->
<svg version="1.1" id="Layer_1" xmlns="http://www.w3.org/2000/svg" xmlns:xlink="http://www.w3.org/1999/xlink" x="0px" y="0px"
	 viewBox="0 0 188.5 62.2" style="enable-background:new 0 0 188.5 62.2;" xml:space="preserve">
<style type="text/css">
	.st0{fill:#B42DFB;}
	.st1{fill:#D3FB31;}
	.st2{fill:#981402;}
	.st3{fill:#00D9FD;}
	.st4{fill:#1922FA;}
	.st5{fill:#00D728;}
</style>
<g>
	<path class="st0" d="M163.9,0c-8.9,0-16.4,6.2-18.3,14.6c3.1-5.3,8.7-9,15.2-9.3c2.4-1.1,5.1-1.7,7.9-1.7c3.1,0,6.1,0.8,8.6,2.1
		C173.9,2.2,169.2,0,163.9,0"/>
	<path class="st1" d="M145.6,14.6c-1.6,2.8-2.5,6-2.5,9.4c0,10.4,8.4,18.8,18.8,18.8c2.8,0,5.5-0.6,7.9-1.7c-0.4,0-0.7,0-1.1,0
		c-5.2,0-10-2.2-13.4-5.6c-6-3.1-10.1-9.4-10.1-16.6C145.2,17.3,145.3,15.9,145.6,14.6"/>
	<path class="st2" d="M160.8,5.2c-6.5,0.4-12.1,4-15.2,9.3c-0.3,1.3-0.5,2.7-0.5,4.2c0,7.2,4.1,13.5,10.1,16.6
		c-3.3-3.4-5.4-8-5.4-13.1C149.9,14.7,154.4,8.2,160.8,5.2"/>
	<path class="st3" d="M177.3,5.6c3.3,3.4,5.4,8,5.4,13.1c0,3.4-0.9,6.6-2.5,9.4c-1.3,5.7-5.2,10.5-10.4,12.9
		c9.9-0.6,17.7-8.7,17.7-18.7C187.4,15,183.3,8.8,177.3,5.6"/>
	<path class="st4" d="M168.7,3.5c-2.8,0-5.5,0.6-7.9,1.7c0.4,0,0.7,0,1.1,0c10.4,0,18.8,8.4,18.8,18.8c0,1.4-0.2,2.8-0.5,4.2
		c1.6-2.8,2.5-6,2.5-9.4c0-5.1-2-9.7-5.4-13.1C174.7,4.3,171.8,3.5,168.7,3.5"/>
	<path class="st5" d="M180.1,28.1c-3.2,5.6-9.3,9.4-16.2,9.4c-3.1,0-6.1-0.8-8.6-2.1c3.4,3.5,8.1,5.6,13.4,5.6c0.4,0,0.7,0,1.1,0
		C174.9,38.6,178.8,33.9,180.1,28.1"/>
	<path d="M161.9,5.2c-0.4,0-0.7,0-1.1,0c-6.4,3-10.9,9.5-10.9,17c0,5.1,2,9.7,5.4,13.1c2.6,1.3,5.5,2.1,8.6,2.1
		c6.9,0,13-3.8,16.2-9.4c0.3-1.3,0.5-2.7,0.5-4.2C180.6,13.6,172.2,5.2,161.9,5.2"/>
	<path d="M31.3,21.5l-7.1,0c-0.5,0-1,0.2-1.3,0.6c-0.4,0.4-0.6,0.9-0.6,1.3l0.1,20.8c0,1.3,1,1.9,1.9,1.9v0.3l0-0.3
		c0.9,0,1.9-0.6,1.9-1.9l0-7.9l4.5,0l3.3,8.5c0.3,1,1.1,1.3,1.7,1.3c1,0,2-0.7,2-1.8c0-0.2,0-0.5-0.1-0.7l-3.1-8l0.2-0.1
		c2-1.1,3.2-3.2,3.2-5.7l0-1.7C37.9,24.2,35.3,21.5,31.3,21.5 M26.1,32.6l0-7.3l5.2,0c1.8,0,2.7,1,2.7,2.8l0,1.7
		c0,1.8-0.9,2.7-2.7,2.8L26.1,32.6z"/>
	<path d="M54.6,38.9l1,5.3c0.2,1.2,1.1,1.6,1.8,1.6v0.3l0-0.3c0.5,0,1-0.2,1.3-0.5c0.3-0.2,0.6-0.7,0.6-1.3c0-0.2,0-0.3,0-0.5
		c-1.3-6.8-4-19.1-4-19.3c-0.7-2.3-2.1-3.3-4.7-3.3c-2.6,0-4.3,1.2-4.7,3.4l-4.4,19.2c0,0.2,0,0.4,0,0.5c0,1.1,1,1.8,2,1.8
		c0.7,0,1.6-0.4,1.8-1.5c0.1-0.7,1.1-5.1,1.1-5.1l0-0.2L54.6,38.9z M47,35.1l2.4-9.7c0.1-0.7,0.7-0.8,1.2-0.8h0c0.7,0,1,0.3,1.1,0.8
		l2.1,9.7L47,35.1z"/>
	<path d="M72.7,21.1l-7.1,0c-1,0-1.9,0.9-1.9,1.9l0.1,20.8c0,1.3,1,1.9,1.9,1.9v0.3l0-0.3c0.9,0,1.9-0.6,1.9-1.9l0-6.7l5.2,0
		c3.9,0,6.6-2.7,6.6-6.6l0-2.9C79.3,23.7,76.7,21.1,72.7,21.1 M67.5,33.3l0-8.4l5.2,0c1.8,0,2.7,1,2.7,2.8l0,2.9
		c0,1.8-0.9,2.8-2.7,2.8L67.5,33.3z"/>
	<path d="M91.7,21l-7.1,0c-1,0-1.9,0.9-1.9,1.9l0.1,20.8c0,1.3,1,1.9,1.9,1.9V46l0-0.3c0.5,0,1-0.2,1.3-0.5c0.4-0.3,0.6-0.8,0.6-1.4
		l0-6.7l5.2,0c3.9,0,6.6-2.7,6.6-6.6l0-2.9C98.3,23.7,95.7,21,91.7,21 M86.6,33.3l0-8.4l5.2,0c1.8,0,2.7,1,2.7,2.8l0,2.9
		c0,1.8-0.9,2.8-2.7,2.8L86.6,33.3z"/>
	<path d="M113.2,38.8l1,5.3c0.2,1.2,1.1,1.6,1.8,1.6V46l0-0.3c1,0,2-0.7,2-1.8c0-0.2,0-0.3,0-0.5c-1.3-6.8-4-19.1-4-19.3
		c-0.7-2.3-2.1-3.3-4.7-3.3c-2.6,0-4.3,1.2-4.7,3.4l-4.4,19.2c0,0.1,0,0.3,0,0.5c0,1.2,1,1.8,2,1.8c0.7,0,1.6-0.4,1.8-1.5
		c0.1-0.7,1.1-5.1,1.1-5.1l0-0.2L113.2,38.8z M105.7,35l2.4-9.7c0.1-0.8,0.7-0.8,1.2-0.8h0c0.6,0,1,0.3,1.1,0.8l2.1,9.7L105.7,35z"
		/>
	<path d="M8.4,21c-5.2,0-8.2,3.1-8.2,8.3L0,37.9c0,5.2,3.1,8.3,8.2,8.3h1.6c5.4-0.1,7.9-2.4,7.9-7.1v-5.5c0-0.8-0.4-1.2-1.2-1.2
		h-5.2c-0.8,0-1.2,0.4-1.2,1.2V35c0,0.8,0.4,1.2,1.2,1.2h2.4v2.5c0,3.6-1.7,3.9-3.9,3.9H8.2c-2,0-4.3-0.9-4.3-5.1L4,29.8
		c0-4.2,2.4-5.1,4.4-5.1l0.3,0c4.1,0.1,5,1.7,5,3.1c0,0.7,0.3,1,1,1h1.7c0.8,0,1.2-0.4,1.2-1.2v-0.1c0-5.5-4.7-6.4-7.5-6.5
		C9.9,21,8.5,21,8.4,21"/>
	<g>
		<path d="M131.8,44l-1.4-1.3l1-1c0.1-0.1,0.3-0.3,0.4-0.4c0.2-0.1,0.3-0.4,0.3-0.6c0-0.5-0.3-0.9-0.8-0.9l-0.1,0
			c-0.3,0-0.6,0.1-0.7,0.4l-1.3,1.4l-1-1c-0.1-0.1-0.3-0.3-0.4-0.4c-0.1-0.2-0.4-0.3-0.6-0.3l-0.1,0c-0.4,0-0.8,0.3-0.9,0.8
			c0,0.3,0.1,0.6,0.4,0.8l1.4,1.3l-1.3,1.3c-0.2,0.1-0.3,0.4-0.4,0.6c0,0.2,0.1,0.5,0.2,0.6c0.1,0.2,0.4,0.3,0.6,0.3l0.1,0
			c0.3,0,0.6-0.1,0.7-0.4l1.3-1.4l1.3,1.3c0.1,0.2,0.4,0.4,0.6,0.4l0.1,0c0.4,0,0.8-0.3,0.9-0.8C132.1,44.5,132,44.2,131.8,44z"/>
		<path d="M131.8,34.7l-1.4-1.3l1-1c0.1-0.1,0.3-0.3,0.4-0.4c0.2-0.1,0.3-0.4,0.3-0.6c0-0.2-0.1-0.5-0.2-0.6
			c-0.2-0.2-0.4-0.3-0.6-0.3l-0.1,0c-0.3,0-0.6,0.1-0.7,0.4l-1.3,1.4l-1-1c-0.1-0.1-0.3-0.3-0.4-0.4c-0.1-0.2-0.4-0.3-0.6-0.3
			l-0.1,0c-0.4,0-0.8,0.3-0.9,0.8c0,0.3,0.1,0.6,0.4,0.8l1.4,1.3l-1.3,1.3c-0.2,0.1-0.3,0.4-0.4,0.6c0,0.5,0.3,0.9,0.8,0.9l0.1,0
			c0.3,0,0.6-0.1,0.7-0.4l1.3-1.4l1.3,1.3c0.1,0.2,0.4,0.3,0.6,0.4l0.1,0c0.4,0,0.8-0.4,0.9-0.8C132.1,35.1,132,34.8,131.8,34.7z"/>
		<path d="M126.6,22.4l1.4,1.3l-1.3,1.3c-0.2,0.2-0.3,0.4-0.4,0.6c0,0.5,0.3,0.9,0.8,0.9l0.1,0c0.3,0,0.6-0.1,0.7-0.4l1.3-1.4
			l1.3,1.3c0.1,0.2,0.4,0.4,0.6,0.4l0.1,0c0.4,0,0.8-0.3,0.9-0.8c0-0.3-0.1-0.6-0.4-0.8l-1.4-1.3l1-1c0.1-0.1,0.3-0.3,0.4-0.4
			c0.2-0.1,0.3-0.4,0.3-0.6c0-0.5-0.3-0.9-0.8-0.9l-0.1,0c-0.3,0-0.6,0.1-0.7,0.4l-1.3,1.4l-1-1c-0.1-0.1-0.3-0.3-0.4-0.4
			c-0.1-0.2-0.4-0.3-0.6-0.3l-0.1,0c-0.5,0-0.8,0.3-0.9,0.8C126.3,21.9,126.4,22.2,126.6,22.4z"/>
	</g>
	<path d="M4.5,56.7c-0.1,0-0.2-0.1-0.2-0.2c0-0.8-0.5-1.1-1.3-1.1c-0.7,0-1.3,0.3-1.3,1.3V59c0,0.9,0.6,1.3,1.3,1.3
		c0.7,0,1.3-0.3,1.3-1.3v-0.5H3.5c-0.1,0-0.2-0.1-0.2-0.2v-0.2C3.2,58,3.3,58,3.5,58h1.3C4.9,58,5,58,5,58.1v0.9
		c0,1.1-0.8,1.7-2,1.7c-1.1,0-2-0.6-2-1.7v-2.5c0-1.1,0.8-1.7,2-1.7c1.1,0,1.9,0.6,1.9,1.6v0c0,0.1-0.1,0.2-0.2,0.2H4.5z"/>
	<path d="M7.6,55.5v2.1h1.2c0.8,0,1.2-0.2,1.2-1v-0.1c0-0.8-0.4-1-1.2-1H7.6z M6.9,55.2C6.9,55,7,55,7.1,55H9c1.2,0,1.7,0.4,1.7,1.5
		v0.1c0,0.7-0.3,1.1-0.9,1.3c0.6,0.2,0.9,0.6,0.9,1.3v1.3c0,0.1-0.1,0.2-0.2,0.2h-0.2c-0.2,0-0.2-0.1-0.2-0.2v-1.3
		c0-0.8-0.4-1.1-1.2-1.1H7.6v2.4c0,0.1-0.1,0.2-0.2,0.2H7.1c-0.1,0-0.2-0.1-0.2-0.2V55.2z"/>
	<path d="M15,59.4v-0.7h-1c-0.5,0-1,0.3-1,0.8c0,0.5,0.4,0.8,1,0.8C14.5,60.3,15,60.1,15,59.4 M15.6,59.4c0,0.9-0.7,1.4-1.6,1.4
		c-0.9,0-1.6-0.4-1.6-1.3v-0.1c0-0.8,0.7-1.3,1.6-1.3h1v-0.5c0-0.7-0.4-0.9-1-0.9c-0.5,0-0.9,0.3-0.9,0.8c0,0.1-0.1,0.2-0.2,0.2
		h-0.2c-0.1,0-0.2-0.1-0.2-0.2c0-0.7,0.6-1.2,1.5-1.2c0.9,0,1.6,0.5,1.6,1.4V59.4z"/>
	<path d="M16.9,56.6c0-0.1,0-0.2,0.2-0.2h0.2c0.1,0,0.2,0,0.3,0.1l1.2,3.7l1.2-3.7c0-0.1,0.1-0.1,0.3-0.1h0.2c0.1,0,0.2,0.1,0.2,0.2
		l-1.3,3.9c-0.1,0.2-0.2,0.2-0.4,0.2h-0.2c-0.2,0-0.3-0.1-0.4-0.2L16.9,56.6z"/>
	<path d="M22.1,56.6c0-0.1,0.1-0.2,0.2-0.2h0.2c0.1,0,0.2,0.1,0.2,0.2v4c0,0.1-0.1,0.2-0.2,0.2h-0.2c-0.1,0-0.2-0.1-0.2-0.2V56.6z
		 M22.1,55.2c0-0.1,0.1-0.2,0.2-0.2h0.2c0.1,0,0.2,0.1,0.2,0.2v0.4c0,0.1-0.1,0.2-0.2,0.2h-0.2c-0.1,0-0.2-0.1-0.2-0.2V55.2z"/>
	<path d="M26,60.7c-0.8,0-1.3-0.3-1.3-1.1v-4.1c0-0.1,0.1-0.2,0.2-0.2h0.2c0.1,0,0.2,0.1,0.2,0.2v0.9h1.1c0.1,0,0.2,0.1,0.2,0.2v0.1
		c0,0.1-0.1,0.2-0.2,0.2h-1.1v2.7c0,0.5,0.3,0.6,0.8,0.6c0.1,0,0.2,0,0.4,0c0.1,0,0.2,0.1,0.2,0.2v0.1c0,0.1-0.1,0.2-0.2,0.2
		C26.3,60.7,26.1,60.7,26,60.7"/>
	<path d="M30.6,59.4v-0.7h-1c-0.5,0-1,0.3-1,0.8c0,0.5,0.4,0.8,1,0.8C30.1,60.3,30.6,60.1,30.6,59.4 M31.2,59.4
		c0,0.9-0.7,1.4-1.6,1.4c-0.9,0-1.6-0.4-1.6-1.3v-0.1c0-0.8,0.7-1.3,1.6-1.3h1v-0.5c0-0.7-0.4-0.9-1-0.9c-0.5,0-0.9,0.3-0.9,0.8
		c0,0.1-0.1,0.2-0.2,0.2h-0.2c-0.1,0-0.2-0.1-0.2-0.2c0-0.7,0.6-1.2,1.5-1.2c0.9,0,1.6,0.5,1.6,1.4V59.4z"/>
	<path d="M34.3,60.7c-0.8,0-1.3-0.3-1.3-1.1v-4.1c0-0.1,0.1-0.2,0.2-0.2h0.2c0.1,0,0.2,0.1,0.2,0.2v0.9h1.1c0.1,0,0.2,0.1,0.2,0.2
		v0.1c0,0.1-0.1,0.2-0.2,0.2h-1.1v2.7c0,0.5,0.3,0.6,0.8,0.6c0.1,0,0.2,0,0.4,0c0.1,0,0.2,0.1,0.2,0.2v0.1c0,0.1-0.1,0.2-0.2,0.2
		C34.6,60.7,34.4,60.7,34.3,60.7"/>
	<path d="M36.5,56.6c0-0.1,0.1-0.2,0.2-0.2h0.2c0.1,0,0.2,0.1,0.2,0.2v4c0,0.1-0.1,0.2-0.2,0.2h-0.2c-0.1,0-0.2-0.1-0.2-0.2V56.6z
		 M36.5,55.2c0-0.1,0.1-0.2,0.2-0.2h0.2c0.1,0,0.2,0.1,0.2,0.2v0.4c0,0.1-0.1,0.2-0.2,0.2h-0.2c-0.1,0-0.2-0.1-0.2-0.2V55.2z"/>
	<path d="M40.6,56.8c-0.5,0-1,0.3-1,0.9v1.6c0,0.7,0.4,0.9,1,0.9c0.5,0,1-0.3,1-0.9v-1.6C41.6,57,41.1,56.8,40.6,56.8 M40.6,60.8
		c-0.9,0-1.6-0.5-1.6-1.4v-1.7c0-0.9,0.7-1.4,1.6-1.4c0.9,0,1.6,0.5,1.6,1.4v1.7C42.2,60.3,41.5,60.8,40.6,60.8"/>
	<path d="M46.9,60.7h-0.2c-0.1,0-0.2-0.1-0.2-0.2v-2.8c0-0.7-0.4-0.9-1-0.9c-0.5,0-1,0.3-1,0.9v2.8c0,0.1-0.1,0.2-0.2,0.2h-0.2
		c-0.1,0-0.2-0.1-0.2-0.2v-2.8c0-0.9,0.7-1.4,1.6-1.4c0.9,0,1.6,0.5,1.6,1.4v2.8C47.1,60.6,47.1,60.7,46.9,60.7"/>
	<path d="M52.4,58.2H55v-1.5c0-0.9-0.6-1.3-1.3-1.3c-0.7,0-1.3,0.3-1.3,1.3V58.2z M51.7,56.6c0-1.1,0.8-1.7,2-1.7c1.1,0,2,0.6,2,1.7
		v3.9c0,0.1-0.1,0.2-0.2,0.2h-0.2c-0.2,0-0.2-0.1-0.2-0.2v-1.8h-2.6v1.8c0,0.1-0.1,0.2-0.2,0.2h-0.2c-0.1,0-0.2-0.1-0.2-0.2V56.6z"
		/>
	<path d="M59.8,57.5c0-0.5-0.4-0.7-0.9-0.7c-0.5,0-0.9,0.2-0.9,0.7v0c0,1.1,2.4,0.6,2.4,2.2c0,0.7-0.7,1.2-1.6,1.2s-1.5-0.4-1.5-1.1
		v0c0-0.1,0.1-0.2,0.2-0.2h0.2c0.1,0,0.2,0.1,0.2,0.2v0c0,0.5,0.4,0.7,0.9,0.7c0.5,0,0.9-0.2,0.9-0.7v0c0-1.1-2.4-0.5-2.4-2.1
		c0-0.7,0.6-1.2,1.5-1.2c0.9,0,1.5,0.5,1.5,1.1v0c0,0.1-0.1,0.2-0.2,0.2H60C59.9,57.6,59.8,57.6,59.8,57.5L59.8,57.5z"/>
	<path d="M63.5,60.7c-0.8,0-1.3-0.3-1.3-1.1v-4.1c0-0.1,0.1-0.2,0.2-0.2h0.2c0.1,0,0.2,0.1,0.2,0.2v0.9h1.1c0.1,0,0.2,0.1,0.2,0.2
		v0.1c0,0.1-0.1,0.2-0.2,0.2h-1.1v2.7c0,0.5,0.2,0.6,0.8,0.6c0.1,0,0.2,0,0.4,0c0.1,0,0.2,0.1,0.2,0.2v0.1c0,0.1-0.1,0.2-0.2,0.2
		C63.8,60.7,63.7,60.7,63.5,60.7"/>
	<path d="M66.3,57.6v3c0,0.1-0.1,0.2-0.2,0.2h-0.2c-0.1,0-0.2-0.1-0.2-0.2v-3c0-0.9,0.5-1.2,1.4-1.2c0.1,0,0.3,0,0.5,0
		c0.1,0,0.2,0.1,0.2,0.2v0.1c0,0.1-0.1,0.2-0.2,0.2c-0.1,0-0.2,0-0.3,0C66.6,56.8,66.3,57,66.3,57.6"/>
	<path d="M70.6,56.8c-0.5,0-1,0.3-1,0.9v1.6c0,0.7,0.4,0.9,1,0.9c0.5,0,1-0.3,1-0.9v-1.6C71.5,57,71.1,56.8,70.6,56.8 M70.6,60.8
		c-0.9,0-1.6-0.5-1.6-1.4v-1.7c0-0.9,0.7-1.4,1.6-1.4c0.9,0,1.6,0.5,1.6,1.4v1.7C72.2,60.3,71.5,60.8,70.6,60.8"/>
	<path d="M74.8,55.5v2.3H76c0.8,0,1.3-0.3,1.3-1.1v-0.2c0-0.8-0.4-1.1-1.3-1.1H74.8z M74.1,55.2c0-0.1,0.1-0.2,0.2-0.2h1.7
		c1.2,0,1.8,0.5,1.8,1.6v0.3c0,1.1-0.6,1.6-1.8,1.6h-1.3v2.1c0,0.1-0.1,0.2-0.2,0.2h-0.2c-0.1,0-0.2-0.1-0.2-0.2V55.2z"/>
	<path d="M81.9,59.4v-0.7h-1c-0.5,0-1,0.3-1,0.8c0,0.5,0.4,0.8,1,0.8C81.4,60.3,81.9,60.1,81.9,59.4 M82.5,59.4
		c0,0.9-0.7,1.4-1.6,1.4c-0.9,0-1.6-0.4-1.6-1.3v-0.1c0-0.8,0.7-1.3,1.6-1.3h1v-0.5c0-0.7-0.4-0.9-1-0.9c-0.5,0-0.9,0.3-0.9,0.8
		c0,0.1-0.1,0.2-0.2,0.2h-0.2c-0.1,0-0.2-0.1-0.2-0.2c0-0.7,0.6-1.2,1.5-1.2c0.9,0,1.6,0.5,1.6,1.4V59.4z"/>
	<path d="M84.9,57.6v3c0,0.1-0.1,0.2-0.2,0.2h-0.2c-0.1,0-0.2-0.1-0.2-0.2v-3c0-0.9,0.5-1.2,1.4-1.2c0.1,0,0.3,0,0.5,0
		c0.1,0,0.2,0.1,0.2,0.2v0.1c0,0.1-0.1,0.2-0.2,0.2c-0.1,0-0.2,0-0.3,0C85.2,56.8,84.9,57,84.9,57.6"/>
	<path d="M89,60.7c-0.8,0-1.3-0.3-1.3-1.1v-4.1c0-0.1,0.1-0.2,0.2-0.2h0.2c0.1,0,0.2,0.1,0.2,0.2v0.9h1.1c0.1,0,0.2,0.1,0.2,0.2v0.1
		c0,0.1-0.1,0.2-0.2,0.2h-1.1v2.7c0,0.5,0.2,0.6,0.8,0.6c0.1,0,0.2,0,0.4,0c0.1,0,0.2,0.1,0.2,0.2v0.1c0,0.1-0.1,0.2-0.2,0.2
		C89.3,60.7,89.1,60.7,89,60.7"/>
	<path d="M91.2,56.6c0-0.1,0.1-0.2,0.2-0.2h0.2c0.1,0,0.2,0.1,0.2,0.2v4c0,0.1-0.1,0.2-0.2,0.2h-0.2c-0.1,0-0.2-0.1-0.2-0.2V56.6z
		 M91.2,55.2c0-0.1,0.1-0.2,0.2-0.2h0.2c0.1,0,0.2,0.1,0.2,0.2v0.4c0,0.1-0.1,0.2-0.2,0.2h-0.2c-0.1,0-0.2-0.1-0.2-0.2V55.2z"/>
	<path d="M94.3,59.4c0,0.7,0.4,0.9,1,0.9c0.5,0,0.9-0.3,0.9-0.8c0-0.1,0.1-0.2,0.2-0.2h0.2c0.1,0,0.2,0.1,0.2,0.2
		c0,0.8-0.7,1.3-1.5,1.3c-0.9,0-1.6-0.5-1.6-1.4v-1.7c0-0.9,0.7-1.4,1.6-1.4c0.9,0,1.5,0.5,1.5,1.3c0,0.1-0.1,0.2-0.2,0.2h-0.2
		c-0.1,0-0.2-0.1-0.2-0.2c0-0.5-0.4-0.8-0.9-0.8c-0.5,0-1,0.3-1,0.9V59.4z"/>
	<path d="M100.1,60.2c0.1,0,0.2,0.1,0.2,0.2v0.1c0,0.1-0.1,0.2-0.2,0.2c-0.1,0-0.3,0-0.4,0c-0.7,0-1.1-0.3-1.1-1v-4.6
		c0-0.1,0.1-0.2,0.2-0.2H99c0.1,0,0.2,0.1,0.2,0.2v4.6c0,0.4,0.2,0.6,0.6,0.6C99.9,60.2,100,60.2,100.1,60.2"/>
	<path d="M102.2,58.2h1.9v-0.4c0-0.7-0.4-0.9-1-0.9c-0.5,0-1,0.3-1,0.9V58.2z M104.2,59.4h0.2c0.1,0,0.2,0.1,0.2,0.2
		c0,0.8-0.6,1.3-1.5,1.3c-0.9,0-1.6-0.5-1.6-1.4v-1.7c0-0.9,0.7-1.4,1.6-1.4c0.9,0,1.6,0.5,1.6,1.4v0.8c0,0.1-0.1,0.2-0.2,0.2h-2.4
		v0.7c0,0.7,0.4,0.9,1,0.9c0.5,0,0.9-0.3,0.9-0.8C104.1,59.4,104.1,59.4,104.2,59.4"/>
	<path d="M109.9,55.5v2.3h1.2c0.8,0,1.3-0.3,1.3-1.1v-0.2c0-0.8-0.4-1.1-1.3-1.1H109.9z M109.2,55.2c0-0.1,0.1-0.2,0.2-0.2h1.7
		c1.2,0,1.8,0.5,1.8,1.6v0.3c0,1.1-0.6,1.6-1.8,1.6h-1.3v2.1c0,0.1-0.1,0.2-0.2,0.2h-0.2c-0.1,0-0.2-0.1-0.2-0.2V55.2z"/>
	<path d="M115.3,60.5c0,0.1-0.1,0.2-0.2,0.2h-0.2c-0.1,0-0.2-0.1-0.2-0.2v-5.4c0-0.1,0.1-0.2,0.2-0.2h0.2c0.1,0,0.2,0.1,0.2,0.2v1.7
		c0.2-0.3,0.6-0.5,1.1-0.5c0.8,0,1.4,0.4,1.4,1.4v2.9c0,0.1-0.1,0.2-0.2,0.2h-0.2c-0.1,0-0.2-0.1-0.2-0.2v-2.8c0-0.7-0.4-0.9-1-0.9
		c-0.5,0-1,0.3-1,0.9V60.5z"/>
	<path d="M122.3,56.6c0-0.1,0.1-0.2,0.2-0.2h0.2c0.1,0,0.2,0.1,0.2,0.2v4.2c0,0.9-0.7,1.4-1.6,1.4c-0.9,0-1.5-0.5-1.5-1.1
		c0-0.1,0.1-0.2,0.2-0.2h0.2c0.1,0,0.2,0.1,0.2,0.2c0,0.4,0.4,0.7,0.9,0.7c0.5,0,1-0.2,1-0.9v-0.9c-0.2,0.3-0.6,0.5-1.1,0.5
		c-0.8,0-1.4-0.4-1.4-1.4v-2.5c0-0.1,0.1-0.2,0.2-0.2h0.2c0.1,0,0.2,0.1,0.2,0.2V59c0,0.7,0.4,0.9,1,0.9c0.5,0,1-0.2,1-0.9V56.6z"/>
	<path d="M127.1,57.5c0-0.5-0.4-0.7-0.9-0.7c-0.5,0-0.9,0.2-0.9,0.7v0c0,1.1,2.4,0.6,2.4,2.2c0,0.7-0.7,1.2-1.5,1.2
		c-0.9,0-1.5-0.4-1.5-1.1v0c0-0.1,0.1-0.2,0.2-0.2h0.2c0.1,0,0.2,0.1,0.2,0.2v0c0,0.5,0.4,0.7,0.9,0.7c0.5,0,0.9-0.2,0.9-0.7v0
		c0-1.1-2.4-0.5-2.4-2.1c0-0.7,0.6-1.2,1.5-1.2c0.9,0,1.5,0.5,1.5,1.1v0c0,0.1-0.1,0.2-0.2,0.2h-0.2
		C127.2,57.6,127.1,57.6,127.1,57.5L127.1,57.5z"/>
	<path d="M129.5,56.6c0-0.1,0.1-0.2,0.2-0.2h0.2c0.1,0,0.2,0.1,0.2,0.2v4c0,0.1-0.1,0.2-0.2,0.2h-0.2c-0.1,0-0.2-0.1-0.2-0.2V56.6z
		 M129.5,55.2c0-0.1,0.1-0.2,0.2-0.2h0.2c0.1,0,0.2,0.1,0.2,0.2v0.4c0,0.1-0.1,0.2-0.2,0.2h-0.2c-0.1,0-0.2-0.1-0.2-0.2V55.2z"/>
	<path d="M132.6,59.4c0,0.7,0.4,0.9,1,0.9c0.5,0,0.9-0.3,0.9-0.8c0-0.1,0.1-0.2,0.2-0.2h0.2c0.1,0,0.2,0.1,0.2,0.2
		c0,0.8-0.7,1.3-1.5,1.3c-0.9,0-1.6-0.5-1.6-1.4v-1.7c0-0.9,0.7-1.4,1.6-1.4c0.9,0,1.5,0.5,1.5,1.3c0,0.1-0.1,0.2-0.2,0.2h-0.2
		c-0.1,0-0.2-0.1-0.2-0.2c0-0.5-0.4-0.8-0.9-0.8c-0.5,0-1,0.3-1,0.9V59.4z"/>
	<path d="M139.1,57.5c0-0.5-0.4-0.7-0.9-0.7c-0.5,0-0.9,0.2-0.9,0.7v0c0,1.1,2.4,0.6,2.4,2.2c0,0.7-0.7,1.2-1.6,1.2
		c-0.9,0-1.5-0.4-1.5-1.1v0c0-0.1,0.1-0.2,0.2-0.2h0.2c0.1,0,0.2,0.1,0.2,0.2v0c0,0.5,0.4,0.7,0.9,0.7c0.5,0,0.9-0.2,0.9-0.7v0
		c0-1.1-2.4-0.5-2.4-2.1c0-0.7,0.6-1.2,1.5-1.2c0.9,0,1.5,0.5,1.5,1.1v0c0,0.1-0.1,0.2-0.2,0.2h-0.2
		C139.1,57.6,139.1,57.6,139.1,57.5L139.1,57.5z"/>
	<path d="M144.8,58.2h2.6v-1.5c0-0.9-0.6-1.3-1.3-1.3c-0.7,0-1.3,0.3-1.3,1.3V58.2z M144.1,56.6c0-1.1,0.8-1.7,2-1.7
		c1.1,0,2,0.6,2,1.7v3.9c0,0.1-0.1,0.2-0.2,0.2h-0.2c-0.2,0-0.2-0.1-0.2-0.2v-1.8h-2.6v1.8c0,0.1-0.1,0.2-0.2,0.2h-0.2
		c-0.1,0-0.2-0.1-0.2-0.2V56.6z"/>
	<path d="M155.3,60.5c0,0.1-0.1,0.2-0.2,0.2h-0.2c-0.1,0-0.2-0.1-0.2-0.2v-2.9c0-0.6-0.4-0.8-0.8-0.8c-0.5,0-0.9,0.2-0.9,0.8v2.9
		c0,0.1-0.1,0.2-0.2,0.2h-0.2c-0.1,0-0.2-0.1-0.2-0.2v-2.9c0-0.6-0.4-0.8-0.9-0.8c-0.5,0-0.8,0.2-0.8,0.8v2.9c0,0.1-0.1,0.2-0.2,0.2
		h-0.2c-0.1,0-0.2-0.1-0.2-0.2v-3c0-0.8,0.6-1.2,1.4-1.2c0.6,0,1,0.2,1.2,0.7c0.2-0.4,0.7-0.7,1.2-0.7c0.8,0,1.4,0.4,1.4,1.2V60.5z"
		/>
	<path d="M159.4,57.5c0-0.5-0.4-0.7-0.9-0.7c-0.5,0-0.9,0.2-0.9,0.7v0c0,1.1,2.4,0.6,2.4,2.2c0,0.7-0.7,1.2-1.5,1.2
		c-0.9,0-1.5-0.4-1.5-1.1v0c0-0.1,0.1-0.2,0.2-0.2h0.2c0.1,0,0.2,0.1,0.2,0.2v0c0,0.5,0.4,0.7,0.9,0.7c0.5,0,0.9-0.2,0.9-0.7v0
		c0-1.1-2.4-0.5-2.4-2.1c0-0.7,0.6-1.2,1.5-1.2c0.9,0,1.5,0.5,1.5,1.1v0c0,0.1-0.1,0.2-0.2,0.2h-0.2
		C159.4,57.6,159.4,57.6,159.4,57.5L159.4,57.5z"/>
	<path d="M163.1,60.7c-0.8,0-1.3-0.3-1.3-1.1v-4.1c0-0.1,0.1-0.2,0.2-0.2h0.2c0.1,0,0.2,0.1,0.2,0.2v0.9h1.1c0.1,0,0.2,0.1,0.2,0.2
		v0.1c0,0.1-0.1,0.2-0.2,0.2h-1.1v2.7c0,0.5,0.2,0.6,0.8,0.6c0.1,0,0.2,0,0.4,0c0.1,0,0.2,0.1,0.2,0.2v0.1c0,0.1-0.1,0.2-0.2,0.2
		C163.3,60.7,163.2,60.7,163.1,60.7"/>
	<path d="M165.8,58.2h1.9v-0.4c0-0.7-0.4-0.9-1-0.9c-0.5,0-1,0.3-1,0.9V58.2z M167.8,59.4h0.2c0.1,0,0.2,0.1,0.2,0.2
		c0,0.8-0.6,1.3-1.5,1.3c-0.9,0-1.6-0.5-1.6-1.4v-1.7c0-0.9,0.7-1.4,1.6-1.4c0.9,0,1.6,0.5,1.6,1.4v0.8c0,0.1-0.1,0.2-0.2,0.2h-2.4
		v0.7c0,0.7,0.4,0.9,1,0.9c0.5,0,0.9-0.3,0.9-0.8C167.7,59.4,167.7,59.4,167.8,59.4"/>
	<path d="M170.7,57.6v3c0,0.1-0.1,0.2-0.2,0.2h-0.2c-0.1,0-0.2-0.1-0.2-0.2v-3c0-0.9,0.5-1.2,1.4-1.2c0.1,0,0.3,0,0.5,0
		c0.1,0,0.2,0.1,0.2,0.2v0.1c0,0.1-0.1,0.2-0.2,0.2c-0.1,0-0.2,0-0.3,0C171,56.8,170.7,57,170.7,57.6"/>
	<path d="M174,59.4c0,0.7,0.4,0.9,1,0.9c0.5,0,1-0.3,1-0.9v-1.6c0-0.7-0.4-0.9-1-0.9c-0.5,0-1,0.3-1,0.9V59.4z M173.4,57.7
		c0-0.9,0.6-1.4,1.4-1.4c0.5,0,0.9,0.2,1.1,0.5v-1.7c0-0.1,0.1-0.2,0.2-0.2h0.2c0.1,0,0.2,0.1,0.2,0.2v4.3c0,0.9-0.7,1.4-1.6,1.4
		c-0.9,0-1.6-0.5-1.6-1.4V57.7z"/>
	<path d="M180.8,59.4v-0.7h-1c-0.5,0-1,0.3-1,0.8c0,0.5,0.4,0.8,1,0.8C180.4,60.3,180.8,60.1,180.8,59.4 M181.4,59.4
		c0,0.9-0.7,1.4-1.6,1.4c-0.9,0-1.6-0.4-1.6-1.3v-0.1c0-0.8,0.7-1.3,1.6-1.3h1v-0.5c0-0.7-0.4-0.9-1-0.9c-0.5,0-0.9,0.3-0.9,0.8
		c0,0.1-0.1,0.2-0.2,0.2h-0.2c-0.1,0-0.2-0.1-0.2-0.2c0-0.7,0.6-1.2,1.5-1.2c0.9,0,1.6,0.5,1.6,1.4V59.4z"/>
	<path d="M188.5,60.5c0,0.1-0.1,0.2-0.2,0.2h-0.2c-0.1,0-0.2-0.1-0.2-0.2v-2.9c0-0.6-0.4-0.8-0.8-0.8c-0.5,0-0.9,0.2-0.9,0.8v2.9
		c0,0.1-0.1,0.2-0.2,0.2h-0.2c-0.1,0-0.2-0.1-0.2-0.2v-2.9c0-0.6-0.4-0.8-0.9-0.8c-0.5,0-0.8,0.2-0.8,0.8v2.9c0,0.1-0.1,0.2-0.2,0.2
		h-0.2c-0.1,0-0.2-0.1-0.2-0.2v-3c0-0.8,0.6-1.2,1.4-1.2c0.6,0,1,0.2,1.2,0.7c0.2-0.4,0.7-0.7,1.2-0.7c0.8,0,1.4,0.4,1.4,1.2V60.5z"
		/>
</g>
</svg>
