<svg version="1.1" xmlns="http://www.w3.org/2000/svg" xmlns:xlink="http://www.w3.org/1999/xlink" x="0" y="0" viewBox="0 0 1193 118.6" xml:space="preserve"><symbol id="logo-uva-large-nl" viewBox="-596.5 -59.3 1193 118.6"><path fill="white" d="M-439.7-48.2c0-6.4-3.9-6.4-8.4-6.4l-.4-.3v-1.4c0-.9.6-1 1.5-1 2.1 0 7.3.4 11.2.4 4.1 0 8.2-.4 12.3-.4l.2.3v2.1l-.4.3h-1c-5.3 0-7.7.6-7.7 6.7v23.7c0 11.8 2.3 21 16.3 21 14.6 0 19.3-7 19.3-20.8v-21.2c0-9.3 0-8.7-7.2-9.3l-.3-.7v-1.6l.2-.5c1.5 0 3.1.4 9.2.4 3.4 0 7.8-.4 10.4-.4l.3.5v1.7l-.5.5c-6 0-8.1.3-8.1 4.4v29.1c0 14.9-8.7 22.5-23.6 22.5-11.8 0-23.5-4.2-23.5-17.8l.2-31.8z"/><path fill="white" d="M-379.3-35.5c0-1.2-.1-1.5-.3-2-.5-1-3.2-3.2-4.3-3.3l-3.2-.2c-.2 0-.3-.6-.3-1.1 0-.3 0-.8.3-.8 1.9 0 3.4-.1 4.9-.1 2.8 0 7.3.2 8.4.4l18.5 22.4c3.1 3.8 6.5 7.5 10 11h.2v-26.9c0-4-1.5-4.6-3.4-4.7l-2.6-.1c-.2 0-.4-.6-.4-1s.2-1 .5-1c1.4 0 4.5.3 7.5.3 2.8 0 5.7-.3 7.4-.3.3 0 .4.2.4.5v1.2c0 .3-.1.4-.6.4h-1.6c-4.2 0-4.2 2.1-4.2 7.3V1.8h-1.5l-33-37.7v28.1c0 5.3.7 5.9 6 6.1.2 0 .4.5.4 1s-.1 1-.2 1c-1.2 0-5.1-.3-7.6-.3-3 0-4.3.3-7.2.3-.4 0-.4-.4-.4-1.2 0-.6.1-.8.8-.8 2.6 0 5.5-.6 5.5-3.7v-30.1zm59.6 24.4c0 8.9.2 9 6.2 9.3l.3.4v1.2c0 .4-.9.4-1.5.4-.9 0-5-.3-7.5-.3-2.9 0-5.9.3-9.1.3-.2-.1-.3-.5-.3-1.1.1-.8.2-.9 2-.9 4.2 0 4.4-.9 4.4-5.6v-29.2c0-3.5-1-4.3-6.2-4.3l-.2-.3-.1-1c.1-.7.6-.7 1-.7 1.7 0 3.6.3 7.8.3 3.1 0 6.7-.3 9.2-.3l.3.4v1.1l-.2.4-1.6.1c-2.5.2-4.3.4-4.3 3.2-.2 0-.2 26.6-.2 26.6zm15.2-27.8c-.7-1.6-3.1-2.1-4.8-2.1l-.4-.3v-1.6l.7-.1c2.6 0 6.3.3 7.6.3 2.8 0 5.6-.3 8.4-.3l.2.2-.2 1.7-2.9.2c-1 .1-2.1.4-2.1 1.3 0 .5.3 1.3.5 1.8l7 18.4 4 9.1c.4.9.5 1.1.7 1.1.1 0 .3-.2.5-1l8.7-23.2c1-2.6 1.7-4.9 1.7-5.6-.1-1-.4-1.6-2.1-1.8l-3.2-.3-.4-.2v-1.9c2.4 0 4.8.4 7.2.4 1.9 0 5.9-.4 6.4-.4l.5.2v1.4l-.5.6-1.9.1c-1.2.1-1.7.7-2.6 2.8-5.8 14-7.2 18.4-11.9 30.2l-3.1 7.9c-.3.9-.4.9-.9.9-.6 0-.7-.2-.8-.4l-16.3-39.4zm47.4 2.1c0-4-3-4.4-6.5-4.4-.2 0-.2-.3-.2-.5v-.7c0-.5 1-.6 3.2-.6 2.4 0 5.2.3 7.8.3 2.5 0 4.9-.3 7.3-.3h12.9c.5 0 .6.5.6 1.2v7.5c0 .2-.1.5-.4.5-.5 0-1.5.1-1.5-.7l-.2-1.9c-.4-3.9-3.1-4.6-6.5-4.6h-6.3c-3.4 0-4.5.7-4.5 5.4v11.1c0 .2.4.5.5.5l7.2-.2c3.7-.1 4.7-1.3 5.6-4.5.1-.4.3-.5 1-.5.4 0 .7.1.7.4 0 1.3-.4 4.1-.4 6.1 0 3.3.4 5.1.4 6.1 0 .4-.6.7-1 .7-.5 0-.9-.2-1-.8-.3-1.6-.3-2.8-.6-3.7-.3-.9-1-1.3-2.9-1.4l-8.7-.2c-.9 0-.9.3-.9.7v14.6c0 4.4 3.2 4.5 7.5 4.5h3.3c3.2 0 5.5-.1 7-1 1.3-.8 3.2-4.5 3.9-6 .8 0 1.8.2 1.8.6 0 .2-.2.7-.3 1l-1.7 6.2c-.5 1.7-.8 1.7-1.6 1.7-6.6 0-13.1-.3-22-.3-2 0-7.2.3-10.3.3-.2 0-.4-.6-.4-1 0-.5.1-1 .4-1 5.3-.2 6.8-.8 6.8-6.4v-28.7zm44.7 13.4c.8.1 1.5.1 2.3.1 4.9 0 11-1.7 11-8.9 0-5.4-3.7-8.9-9.1-8.9-4.2 0-4.3 1-4.3 2.8.1.1.1 14.9.1 14.9zm-5.5-13c0-3.1-.1-4.6-4-4.6h-2.5c-.4 0-.4-.7-.4-1.2 0-.3.2-.9.4-.9 3.5 0 7.2.2 10.7.2 2.8 0 5.6-.2 8.4-.2 6.2 0 12.3 4.2 12.3 10.6 0 5.6-5.1 9.3-9.8 10v.1c2.4.6 4.9 5 5.5 6l6.7 10.3c2.1 3.2 3.6 3.9 7.2 4l.4.4v1.2c0 .5-.4.6-.7.6-1.3 0-3.2-.2-4.1-.2-1.5 0-2.9.2-4.4.2-1.4 0-4.2-4.1-7.8-10.5-4-7-6.3-10.9-10.3-10.9-.5 0-1.2 0-2.1.1v15c0 2.2 0 4.3 3.1 4.3 2.3 0 3.4 0 3.4.5 0 1.2-.2 1.5-1.1 1.5-3.2 0-5.8-.3-8.4-.3-1 0-7.8.3-8.7.3-.4 0-.5-.8-.5-1.3s.2-.7 1.5-.7c4.2-.2 5.3-.8 5.3-5-.1 0-.1-29.5-.1-29.5zm44.4 14.3c-4.4-2.6-6.2-5.1-6.2-9.8 0-7.7 6.2-11.9 14.5-11.9 2.3 0 5.6.8 7.7 1.7l.4 7.6v.3c0 .3-.6.4-1.5.4-.8 0-.9-.4-1-1-.4-4.1-3.4-6.7-7.7-6.7-4.2 0-7.4 2.9-7.4 6.9 0 4.4 2.7 6.1 8.8 9.4 6.1 3.2 11.3 6 11.3 13.6 0 8.3-7.5 12.7-15.2 12.7-2.5 0-6.7-.8-9-1.8-.5-.2-.7-1-.9-2.4l-.7-5.7c0-.4 1.2-.4 1.6-.4.2 0 .4.1.5.6 1.4 4.6 4.6 7.3 9.5 7.3 4.3 0 8.4-3.7 8.4-7.9 0-4-2.3-6.4-5.4-8.3l-7.7-4.6zm36.5 11c0 8.9.2 9 6.2 9.3l.3.4v1.2c0 .4-.9.4-1.5.4-.9 0-5-.3-7.5-.3-2.9 0-5.9.3-9.1.3-.2-.1-.3-.5-.3-1.1.1-.8.2-.9 2-.9 4.2 0 4.4-.9 4.4-5.6v-29.2c0-3.5-1-4.3-6.2-4.3l-.2-.3-.1-1c.1-.7.6-.7 1-.7 1.7 0 3.6.3 7.8.3 3.1 0 6.7-.3 9.2-.3l.3.4v1.1l-.2.4-1.7.1c-2.4.2-4.3.4-4.3 3.2-.1 0-.1 26.6-.1 26.6zm33 4.7c0 4.5 3.1 4.5 6.8 4.5l.4.3v1c0 .7-.3.7-1.3.7-1.2 0-4.2-.3-8.5-.3-3.4 0-8.6.3-10.1.3-.1-.4-.2-.7-.2-1.1 0-.2.1-.6.2-.7l.6-.2h.7c5.6 0 5.8-1.9 5.8-7v-29l-.2-2.8h-8.2c-4.7 0-5.4 2.9-6.5 6.8-.1.4-.4.6-.7.6-.8 0-1.4-.2-1.4-.6 0-1 .7-6.7.7-11.6 0-.2.9-.2 1.7-.2 2 2.6 2.6 2.6 5.2 2.6h22.8c4.3 0 5.5-1.3 7-3.2.4 0 1.8 0 1.8.6 0 .5-1.2 5.5-1.3 9.9 0 .7-.2 2-.5 2-.6 0-2-.3-2-.6l-.2-3.1c-.2-3.1-1.7-3.2-4.2-3.2h-8.4v34.3zm26.4-30.4c0-4-3-4.4-6.5-4.4-.2 0-.2-.3-.2-.5v-.7c0-.5 1-.6 3.2-.6 2.4 0 5.2.3 7.8.3 2.4 0 4.9-.3 7.3-.3h12.9c.5 0 .6.5.6 1.2v7.5c0 .2-.1.5-.4.5-.5 0-1.5.1-1.5-.7l-.2-1.9c-.4-3.9-3.1-4.6-6.5-4.6h-6.3c-3.4 0-4.5.7-4.5 5.4v11.1c0 .2.4.5.5.5l7.2-.2c3.7-.1 4.7-1.3 5.6-4.5.1-.4.3-.5 1-.5.4 0 .7.1.7.4 0 1.3-.4 4.1-.4 6.1 0 3.3.4 5.1.4 6.1 0 .4-.6.7-1 .7-.5 0-.9-.2-1-.8-.3-1.6-.3-2.8-.6-3.7-.3-.9-1-1.3-2.9-1.4l-8.7-.2c-.9 0-.9.3-.9.7v14.6c0 4.4 3.2 4.5 7.5 4.5h3.3c3.2 0 5.5-.1 7-1 1.4-.8 3.2-4.5 3.9-6 .8 0 1.8.2 1.8.6 0 .2-.2.7-.3 1l-1.7 6.2C-51 .3-51.3.3-52.1.3c-6.6 0-13.1-.3-22-.3-2 0-7.2.3-10.3.3-.2 0-.4-.6-.4-1 0-.5.1-1 .4-1 5.3-.2 6.8-.8 6.8-6.4v-28.7zm45.8 25.7c0 8.9.2 9 6.2 9.3l.3.4v1.2c0 .4-.9.4-1.5.4-.9 0-5-.3-7.5-.3-2.9 0-5.9.3-9.1.3-.2-.1-.3-.5-.3-1.1.1-.8.2-.9 2-.9 4.2 0 4.4-.9 4.4-5.6v-29.2c0-3.5-1-4.3-6.2-4.3l-.2-.3-.1-1c.1-.7.6-.7 1-.7 1.7 0 3.6.3 7.8.3 3.1 0 6.7-.3 9.2-.3l.3.4v1.1l-.2.4-1.7.1c-2.5.2-4.3.4-4.3 3.2l-.1 26.6zM.1-6.4C.1-1.9 3.2-1.9 7-1.9l.4.3v1C7.3.2 7 .2 6 .2 4.8.2 1.8-.1-2.5-.1c-3.4 0-8.6.3-10.1.3-.1-.4-.2-.7-.2-1.1 0-.2.1-.6.2-.7l.6-.2h.7c5.6 0 5.8-1.9 5.8-7v-29l-.2-2.8h-8.2c-4.7 0-5.4 2.9-6.5 6.8-.1.4-.4.6-.7.6-.8 0-1.4-.2-1.4-.6 0-1 .7-6.7.7-11.6 0-.2.9-.2 1.7-.2 2 2.6 2.6 2.6 5.2 2.6H7.9c4.3 0 5.5-1.3 7-3.2.4 0 1.8 0 1.8.6 0 .5-1.2 5.5-1.4 9.9 0 .7-.2 2-.5 2-.6 0-2-.3-2-.6l-.2-3.1c-.2-3.1-1.7-3.2-4.2-3.2H.1v34.2zm41.3-32.5c-.7-1.6-3.1-2.1-4.8-2.1l-.4-.3v-1.6l.7-.1c2.6 0 6.3.3 7.6.3 2.8 0 5.6-.3 8.4-.3l.2.2-.2 1.7-2.9.2c-1 .1-2.1.4-2.1 1.3 0 .5.3 1.3.5 1.8l7 18.4 4 9.1c.4.9.5 1.1.7 1.1.1 0 .3-.2.6-1l8.7-23.2c1-2.6 1.7-4.9 1.7-5.6-.1-1-.4-1.6-2.1-1.8l-3.2-.2-.4-.2v-1.9c2.4 0 4.8.4 7.1.4 1.9 0 5.9-.4 6.4-.4l.5.2v1.4l-.5.5-1.9.1c-1.2.1-1.7.7-2.6 2.8-5.8 14-7.2 18.4-11.9 30.2L59.4 0c-.3 1-.4 1-.8 1-.5 0-.7-.2-.8-.4L41.4-38.9zm56.4 19.6L91-36.8h-.1L85-19.3h12.8zm-13.5 2.4l-2.7 8.7c-.5 1.6-.7 3-.7 4 0 2 2.9 2.4 4.5 2.4.6 0 .7.4.7 1.2 0 .6-.1.9-.5.9-1.4 0-5.9-.3-7.5-.3-1.6 0-4.2.3-6 .3-1.2 0-1.2-.2-1.2-1v-.7c0-.3.6-.4 2-.6 3.2-.3 3.6-.9 4.8-4.3l12.1-35.2c1.2-1 2.5-2.4 4-2.9L109-5.7c1 2.6 2.1 3.9 5.7 3.9.7 0 .8.7.8 1.4s-.4.7-1.2.7c-1 0-4.9-.3-7.3-.3-2.4 0-4.9.1-7.3.3-.9 0-1-.2-1-1.1 0-.7.4-1 1.2-1 .9 0 3.9-.2 3.9-1.7 0-.5-.2-1.5-1.1-3.6l-3.9-9.8H84.3zm38.8-18.6c0-1.2-.1-1.5-.3-2-.5-1-3.2-3.2-4.3-3.3l-3.2-.2c-.2 0-.3-.6-.3-1.1 0-.3 0-.8.3-.8 1.9 0 3.4-.1 4.9-.1 2.8 0 7.3.2 8.4.4L147-20.2c3.1 3.8 6.5 7.5 10 11h.2v-26.9c0-4-1.5-4.6-3.4-4.7l-2.6-.1c-.2 0-.4-.6-.4-1s.2-1 .6-1c1.3 0 4.5.3 7.5.3 2.8 0 5.7-.3 7.4-.3.3 0 .4.2.4.5v1.2c0 .3-.1.4-.5.4h-1.6c-4.2 0-4.2 2.1-4.2 7.3V1.8h-1.5l-33-37.7v28.1c0 5.3.7 5.9 6 6.1.2 0 .4.5.4 1s-.1 1-.2 1c-1.2 0-5.1-.3-7.7-.3-3 0-4.3.3-7.2.3-.4 0-.4-.4-.4-1.2 0-.6.1-.8.8-.8 2.6 0 5.5-.6 5.5-3.7v-30.1zm95 9.8L209-49.1h-.2L201-25.7h17.1zM200-22.6L196.4-11c-.7 2.1-1 4-1 5.3 0 2.7 3.8 3.3 6 3.3.7 0 .9.5.9 1.5 0 .8-.1 1.1-.7 1.1-1.9 0-7.8-.4-10-.4s-5.6.4-8.1.4C182 .3 182 0 182-1v-.9c0-.4.7-.6 2.7-.7 4.2-.4 4.8-1.2 6.4-5.7l16.2-47c1.6-1.4 3.3-3.3 5.4-3.9l20.5 51.7c1.4 3.4 2.9 5.1 7.6 5.1.9 0 1.1 1 1.1 1.9 0 .9-.6.9-1.5.9-1.3 0-6.5-.4-9.7-.4-3.2 0-6.5.2-9.8.4-1.2 0-1.3-.2-1.3-1.4 0-.9.5-1.3 1.6-1.3 1.2 0 5.2-.2 5.2-2.2 0-.6-.3-2-1.5-4.8l-5.2-13.1-19.7-.2zM285.7-43c1.9 0 3.8.2 5.8.2 1.5 0 3.1-.2 4.7-.2.9 0 1.1.2 1.1.4v1c0 .4-.2.7-.4.7-.4 0-1.1-.1-1.8-.1-3.6 0-3.6 1.8-3.6 5.8 0 3.5.7 26.4.7 29.7 0 1.7.9 3.7 3.5 3.7 2.4 0 2.7.1 2.7.7 0 .7-.4 1.3-.5 1.3-3.2 0-5.8-.3-8.4-.3-2.6 0-5.2.3-7.8.3-.4 0-.5-.2-.5-.6V-1c0-.6.6-.8 3.4-.8 1.2 0 2.3-1.5 2.3-3.6 0-6.6-.2-20.9-.5-31.3l-.2-.1c-3.4 7-7.9 17.2-10 22.7L270.4 1c0 .2-.2.4-.5.4s-.6-.3-.7-1.2c-.4-1.5-.9-3-1.5-4.5L256-32.4c-.4-1-.8-1.8-1-1.8-.3 0-.3 1.2-.3 1.9 0 4.8-.7 23.3-.7 26.3 0 2.6 0 4.2 5.4 4.2.4 0 .4.3.4 1 0 .2-.1 1-.3 1-.9 0-3.9-.3-7.2-.3-3.5 0-6.9.3-7.8.3-.2 0-.4-.2-.4-.5v-.9c0-.6.5-.6 1.2-.6 5 0 5.7-1.5 5.7-6.9 0-3 1-25.5 1-27.7 0-3.2-1.6-4.6-7.1-4.6-.2 0-.3-.3-.3-.7v-.8c0-.3.2-.5.5-.5 2.3 0 4.5.3 7 .3 1.5 0 3.1-.3 4.7-.3.4 0 .9 1 1.2 1.8l13.2 31.6h.3c.1 0 14.2-33.4 14.2-33.4zm22.1 20.9c-4.4-2.6-6.2-5.1-6.2-9.8 0-7.7 6.2-11.9 14.5-11.9 2.3 0 5.6.8 7.7 1.7l.4 7.6v.3c0 .3-.6.4-1.5.4-.8 0-.9-.4-1-1-.4-4.1-3.4-6.7-7.7-6.7-4.2 0-7.4 2.9-7.4 6.9 0 4.4 2.7 6.1 8.8 9.4 6.1 3.2 11.3 6 11.3 13.6 0 8.3-7.5 12.7-15.2 12.7-2.5 0-6.7-.8-9-1.8-.5-.2-.7-1-.9-2.4l-.7-5.7c0-.4 1.2-.4 1.6-.4.2 0 .4.1.5.6 1.4 4.6 4.6 7.3 9.5 7.3 4.3 0 8.4-3.7 8.4-7.9 0-4-2.3-6.4-5.4-8.3.1 0-7.7-4.6-7.7-4.6zm44.5 16.8c0 4.5 3.1 4.5 6.8 4.5l.4.3v1c0 .7-.3.7-1.3.7-1.2 0-4.2-.3-8.5-.3-3.4 0-8.6.3-10.1.3-.1-.4-.2-.7-.2-1.1 0-.2.1-.6.2-.7l.6-.2h.7c5.6 0 5.8-1.9 5.8-7v-29l-.2-2.8h-8.2c-4.7 0-5.4 2.9-6.6 6.8-.1.4-.4.6-.7.6-.9 0-1.4-.2-1.4-.6 0-1 .7-6.7.7-11.6 0-.2.9-.2 1.7-.2 2 2.6 2.6 2.6 5.2 2.6h22.7c4.3 0 5.5-1.3 7-3.2.4 0 1.8 0 1.8.6 0 .5-1.2 5.5-1.3 9.9 0 .7-.2 1.9-.5 1.9-.6 0-2-.3-2-.6l-.2-3.1c-.3-3.1-1.7-3.2-4.2-3.2h-8.4l.2 34.4zM378-36.8c0-4-3-4.4-6.5-4.4-.2 0-.2-.3-.2-.5v-.7c0-.5 1-.6 3.2-.6 2.4 0 5.2.3 7.8.3 2.4 0 4.9-.3 7.3-.3h12.9c.5 0 .5.5.5 1.2v7.5c0 .2-.1.5-.4.5-.5 0-1.5.1-1.5-.7l-.2-1.9c-.4-3.9-3.1-4.6-6.5-4.6H388c-3.4 0-4.5.7-4.5 5.4v11.1c0 .2.4.5.5.5l7.2-.2c3.7-.1 4.7-1.3 5.6-4.5.1-.4.3-.5 1-.5.4 0 .7.1.7.4 0 1.3-.4 4.1-.4 6.1 0 3.3.4 5.1.4 6.1 0 .4-.6.7-1 .7-.5 0-.9-.2-1-.8-.3-1.6-.3-2.8-.6-3.7-.3-.9-1.1-1.3-2.9-1.4l-8.7-.2c-.9 0-.9.3-.9.7v14.6c0 4.4 3.2 4.5 7.5 4.5h3.3c3.2 0 5.5-.1 7-1 1.4-.8 3.2-4.5 3.9-6 .8 0 1.8.2 1.8.6 0 .2-.2.7-.3 1L405-1.5c-.5 1.7-.8 1.7-1.6 1.7-6.6 0-13.1-.3-22-.3-2 0-7.2.3-10.3.3-.2 0-.4-.6-.4-1 0-.5.1-1 .4-1 5.3-.2 6.8-.8 6.8-6.4l.1-28.6zm43.9 13.4c.8.1 1.5.1 2.3.1 4.9 0 11-1.7 11-8.9 0-5.4-3.7-8.9-9-8.9-4.2 0-4.3 1-4.3 2.8v14.9zm-5.5-13c0-3.1-.1-4.6-4-4.6h-2.5c-.4 0-.4-.7-.4-1.2 0-.3.2-.9.4-.9 3.5 0 7.2.2 10.7.2 2.8 0 5.6-.2 8.4-.2 6.2 0 12.4 4.2 12.4 10.6 0 5.6-5.1 9.3-9.9 10v.1c2.4.6 4.9 5 5.5 6L443.7-6c2.1 3.2 3.5 3.9 7.2 4l.4.4v1.2c0 .5-.4.6-.7.6-1.3 0-3.2-.2-4.1-.2-1.5 0-2.9.2-4.4.2-1.4 0-4.2-4.1-7.8-10.5-4-7-6.3-10.9-10.3-10.9-.5 0-1.2 0-2.1.1v15c0 2.2 0 4.3 3.1 4.3 2.3 0 3.4 0 3.4.5 0 1.2-.2 1.5-1.1 1.5-3.2 0-5.8-.3-8.4-.3-1 0-7.8.3-8.7.3-.4 0-.5-.8-.5-1.3s.2-.7 1.5-.7c4.2-.2 5.3-.8 5.3-5-.1-.1-.1-29.6-.1-29.6zM465.8-9c0 6.7 6.9 6.7 9.6 6.7 8.4 0 17.3-6.9 17.3-19.7 0-10.9-5.9-16.3-10.1-18.7-2.9-1.3-6.8-1.6-9.4-1.6-5 0-7.4.4-7.4 4.3v29zm-5.5-27.2c0-2.3-.5-4.7-2.7-4.7-.7 0-2.7.2-3.8.2-.3 0-.3-.9-.3-1.2 0-.4 0-.6 1-.8 4.1-.9 13.9-1.5 19.1-1.5 3.4 0 6.6.3 9.6 1.1 8.3 2.3 16.1 9.7 16.1 20.9 0 15.2-12.7 22-24.3 22-5.8 0-8.9-.3-11.9-.3-3.1 0-6.1.2-9.2.3-.2 0-.3-.6-.3-1s.3-1 .6-1c2-.2 3.5-.4 4.7-1.1.9-.6 1.5-1.6 1.5-3.5v-29.4h-.1zm63.3 16.9l-6.8-17.5h-.1l-5.8 17.5h12.7zm-13.5 2.4l-2.7 8.7c-.5 1.6-.7 3-.7 4 0 2 2.9 2.4 4.5 2.4.5 0 .7.4.7 1.2 0 .6-.1.9-.5.9-1.4 0-5.9-.3-7.5-.3-1.7 0-4.2.3-6.1.3-1.2 0-1.2-.2-1.2-1v-.7c0-.3.6-.4 2-.6 3.2-.3 3.6-.9 4.8-4.3l12.1-35.2c1.2-1 2.5-2.4 4-2.9l15.4 38.7c1.1 2.6 2.1 3.9 5.7 3.9.7 0 .8.7.8 1.4s-.4.7-1.1.7c-1 0-4.9-.3-7.3-.3-2.4 0-4.9.1-7.3.3-.9 0-1-.2-1-1.1 0-.7.4-1 1.2-1 .9 0 3.9-.2 3.9-1.7 0-.5-.2-1.5-1.1-3.6l-3.9-9.8h-14.7zM583.8-43c1.9 0 3.9.2 5.8.2 1.5 0 3.1-.2 4.6-.2.9 0 1.1.2 1.1.4v1c0 .4-.2.7-.4.7-.4 0-1.1-.1-1.8-.1-3.5 0-3.5 1.8-3.5 5.8 0 3.5.7 26.4.7 29.7 0 1.7.9 3.7 3.5 3.7 2.4 0 2.8.1 2.8.7 0 .7-.4 1.3-.6 1.3-3.2 0-5.8-.3-8.4-.3-2.6 0-5.2.3-7.8.3-.4 0-.5-.2-.5-.6V-1c0-.6.6-.8 3.4-.8 1.2 0 2.3-1.5 2.3-3.6 0-6.6-.2-20.9-.5-31.3l-.2-.1c-3.4 7-7.9 17.2-10 22.7L568.5 1c-.1.2-.3.4-.6.4s-.5-.3-.7-1.2c-.4-1.5-.9-3-1.5-4.5l-11.6-28.1c-.4-1-.8-1.8-1-1.8s-.2 1.2-.2 1.9c0 4.8-.7 23.3-.7 26.3 0 2.6 0 4.2 5.4 4.2.4 0 .4.3.4 1 0 .2-.1 1-.3 1-.8 0-3.8-.3-7.1-.3-3.5 0-6.9.3-7.8.3-.2 0-.4-.2-.4-.5v-.9c0-.6.5-.6 1.2-.6 5 0 5.8-1.5 5.8-6.9 0-3 1-25.5 1-27.7 0-3.2-1.6-4.6-7.1-4.6-.2 0-.3-.3-.3-.7v-.8c0-.3.2-.5.5-.5 2.3 0 4.5.3 7 .3 1.5 0 3.1-.3 4.6-.3.4 0 .9 1 1.2 1.8l13.2 31.6h.3l14-33.4zM-596.5 59.3h118.6V-59.3h-118.6V59.3zm45.4-107.7l5-5 9 9 9-9 5 5-9 9 9 9-5 5-9-9-9 9-5-5 9-9-9-9zm8.9 41.9l-9-9 5-5 9 9 9-9 5 5-9 9 9 9-5 5-9-9-9 9-5-5 9-9zm18.9 54.8l-5 5-9-9-9 9-5-5 9-9-9-9 5-5 9 9 9-9 5 5-9 9c0 .1 9 9 9 9zm3.5-25.5V12l-4.9 4.6s-2.8 2.9-9.2 4.6c-6.4 1.6-11.3 1.3-14.2.8-2.9-.6-5.5-1.4-7.2-2.1-1.7-.8-4.6-2.2-7.2-6.3-1.6-2.4-1.6-8.5-1.6-8.5l.1-11.3-.9-19.1s2.9.1 4.9.1c2.4 0 4.5-.5 4.6-.2.1.6.2 26.5.2 26.5s.3 5.5 1.6 8.4c2.4 5 13 5.4 13 5.4s1.7.2 5.4-.1c3.7-.3 10.9-1.3 13.2-5.7 0 0 1.7-1.8 2.3-12.3.6-11-.8-21.9-.8-21.9l10.3-.5s-.7 7.8-.7 22.4c0 14.6 1.3 23.1 1.3 23.1l-10.2 2.9z"/></symbol><use xlink:href="#logo-uva-large-nl" width="1193" height="118.6" x="-596.5" y="-59.3" transform="translate(596.499 59.294)" overflow="visible"/></svg>