<svg xmlns="http://www.w3.org/2000/svg" version="1.1" viewBox="0 0 500 500">
  <defs>
    <clipPath id="a">
      <path d="M0 0h257.6v28.3H0V0z"/>
    </clipPath>
    <clipPath id="b">
      <path d="M0 0h258v29H0V0z"/>
    </clipPath>
  </defs>

  <g fill="#fff" fill-opacity="1" fill-rule="nonzero" clip-path="url(#b)" transform="matrix(17.91408 0 0 -17.95139 0 501)">
    <path d="M7.4 19.5h2.2v-6.2s.2-1.3.5-2c.5-1.2 3-1.3 3-1.3h1.3c.9.1 2.6.4 3.1 1.4 0 0 .4.4.5 3 .2 2.5-.2 5-.2 5l2.5.2s-.2-1.9-.2-5.3.3-5.4.3-5.4L18 8.2v2.5l-1.1-1s-.7-.8-2.2-1.1a7.6 7.6 0 0 0-5 .3c-.4.2-1.1.5-1.7 1.5-.4.5-.4 2-.4 2V15l-.2 4.5m8.6.8-5.3 5.4 1.2 1.2 5.3-5.4-1.1-1.2"/>
    <path d="m11.7 20.3-1.2 1.2 5.4 5.3 1.2-1.1-5.4-5.4m4.3-8.1-5.3 5.4 1.2 1.1 5.3-5.3-1.1-1.2"/>
    <path d="m11.7 12.2-1.1 1.2 5.3 5.3 1.2-1.1-5.4-5.4M16 1.4l-5.3 5.3L11.8 8l5.4-5.4L16 1.4"/>
    <path d="m11.7 1.3-1.2 1.2L16 8l1.2-1.2-5.4-5.4"/>
  </g>
  <path fill="#fff" d="M53.3 57.2v-2.6a104.5 104.5 0 0 1 0 2.6z"/>
  <path fill="#000" d="M.6 250.2V1h498.6v498.6H.6V250.2zM267 458c10 10.3 19 18.7 19.9 18.7.9 0 6.2-4.6 12-10.3l10.2-10.4-19.2-19.3-19.3-19.2 18.2-18.2L307 381l-11-11-11.1-11-17.9 17.7-17.9 17.9-18.2-18.2-18.2-18.2-11 11-11.1 11 18.2 18.3 18.2 18.2-19.7 19.7-19.6 19.7 11 11 11.1 11 19.5-19.4L249 439l18 19zm78-109 20.7-6.2-.1-4.8c0-2.7-1-14.6-2-26.4a1633 1633 0 0 1-1-141l1.1-21.1h-8.3c-4.6 0-14.6.4-22.4 1l-14.1.9.9 8c5.6 51.3 3.1 113.1-5.3 133.4-7 16.6-32.8 26.8-68.8 27-20.6 0-36.5-2.9-49-9-16.7-8.2-20-16.7-21.8-56.3-.7-15-1.3-44.6-1.3-65.9V150l-20.4.7-20.5.9 1.7 38.7c1 21.2 1.9 53.7 2 72.2 0 46.3 1.8 52.3 19.5 68.5 9.3 8.5 19 13.2 37.2 18.2a138 138 0 0 0 65.8 0 99 99 0 0 0 51.4-27.3l11.8-11.3V333c0 12.3.5 22.3 1 22.3.7 0 10.5-2.8 21.9-6.2zm-114.7-85.6 19-18.9 19.2 19.3 19.3 19.2 11-11 11.1-11-19.2-19.4-19.3-19.2 17.5-17.6c9.6-9.6 17.5-18.1 17.5-18.9 0-1.8-18.8-20.7-20.7-20.7-.8 0-9.3 7.9-19 17.5l-17.5 17.5L231 182l-18.2-18.2-11 11-11.1 11 18.2 18.3 18.2 18.3-19 18.9a213.3 213.3 0 0 0-18.8 20.3c0 1.9 18.8 20.8 20.6 20.8.8 0 10-8.6 20.4-19zm0-145.7 19-18.9 19.2 19.3 19.3 19.2 11-11 11.1-11-19.2-19.4-19.3-19.3 17.5-17.5c9.6-9.6 17.5-18.1 17.5-18.9 0-.7-4.7-6-10.3-11.7L285.6 18l-18.2 18.2-18.2 18.2-18.6-18.6L212 17.4l-11 11-11.1 11 18.5 18.7L227 76.6l-19.7 19.7-19.6 19.7 10.4 10.3c5.7 5.7 11 10.3 11.7 10.3.8 0 10-8.5 20.4-18.9zM52.9 55.6c-.5-.5-.8.4-.8 1.9 0 1.6.4 2 .9.8.4-1 .3-2.2-.1-2.7z"/>
</svg>
