<?xml version="1.0" standalone="no"?>
<!DOCTYPE svg PUBLIC "-//W3C//DTD SVG 20010904//EN"
 "http://www.w3.org/TR/2001/REC-SVG-20010904/DTD/svg10.dtd">
<svg version="1.0" xmlns="http://www.w3.org/2000/svg"
 width="704.000000pt" height="704.000000pt" viewBox="0 0 704.000000 704.000000"
 preserveAspectRatio="xMidYMid meet">
<metadata>
Created by potrace 1.14, written by Peter Selinger 2001-2017
</metadata>
<g transform="translate(0.000000,704.000000) scale(0.100000,-0.100000)"
fill="#000000" stroke="none">
<path d="M3068 6905 c-2 -2 -33 -7 -68 -10 -36 -3 -76 -8 -90 -10 -72 -10
-117 -18 -135 -22 -11 -2 -31 -6 -45 -8 -14 -2 -57 -11 -95 -20 -39 -9 -77
-18 -86 -20 -37 -8 -217 -64 -251 -78 -21 -9 -38 -14 -38 -11 0 3 -12 -1 -27
-9 -16 -8 -73 -34 -128 -58 -96 -41 -124 -55 -263 -130 -142 -76 -358 -228
-492 -344 -61 -53 -274 -268 -320 -324 -25 -29 -51 -59 -58 -67 -6 -7 -12 -16
-12 -21 0 -5 -8 -16 -17 -25 -28 -26 -38 -40 -111 -150 -122 -183 -227 -379
-286 -533 -15 -38 -31 -79 -36 -90 -10 -23 -60 -172 -65 -195 -2 -8 -4 -15 -5
-15 -1 0 -3 -7 -5 -15 -20 -99 -38 -146 -105 -280 -54 -107 -160 -352 -160
-371 0 -4 -5 -20 -12 -36 -12 -31 -15 -39 -22 -71 -3 -12 -8 -27 -11 -32 -3
-5 -8 -18 -10 -27 -2 -10 -13 -54 -24 -98 -12 -44 -24 -93 -26 -110 -3 -16 -8
-41 -10 -55 -3 -14 -8 -36 -10 -50 -3 -14 -8 -41 -10 -60 -3 -19 -7 -48 -10
-65 -26 -173 -27 -632 -1 -770 2 -11 7 -45 11 -75 4 -30 13 -84 21 -120 7 -36
16 -76 18 -90 45 -233 199 -621 337 -848 21 -35 39 -68 39 -73 0 -5 4 -9 9 -9
5 0 14 -13 21 -30 7 -16 16 -30 20 -30 3 0 13 -12 21 -27 13 -26 78 -116 137
-188 134 -166 344 -373 497 -488 5 -4 37 -28 70 -52 33 -25 65 -49 72 -55 7
-5 17 -10 23 -10 5 0 10 -4 10 -10 0 -5 4 -10 9 -10 6 0 30 -13 53 -29 130
-88 503 -268 613 -295 6 -2 17 -6 25 -9 47 -19 257 -75 345 -92 57 -11 153
-28 178 -31 15 -2 42 -6 60 -8 184 -25 573 -26 727 -2 14 2 48 7 75 11 54 7
114 16 130 19 216 46 456 117 586 173 101 44 100 42 14 43 -139 3 -298 9 -355
16 -30 3 -71 7 -90 9 -19 1 -38 3 -42 4 -5 1 -8 6 -8 12 0 5 4 8 8 5 5 -3 45
-8 88 -11 43 -3 97 -8 119 -10 52 -6 338 -6 438 0 78 4 139 11 189 21 15 3 42
7 60 9 49 7 133 24 223 47 44 11 85 21 90 22 34 7 222 70 233 79 6 5 12 7 12
4 0 -3 42 13 93 35 109 48 129 55 141 56 5 0 12 4 15 9 3 4 38 24 76 43 119
59 379 224 445 282 8 7 37 31 65 53 85 67 106 86 220 200 109 109 182 188 220
241 11 15 25 32 31 38 24 25 147 202 152 218 2 10 8 18 12 18 5 0 15 12 22 28
8 15 42 77 76 137 34 61 80 153 102 205 55 127 55 127 78 190 11 30 23 64 28
75 9 25 11 34 18 62 2 12 10 31 16 42 6 12 9 21 6 21 -2 0 3 21 11 48 16 53
15 48 38 157 16 78 18 91 30 165 13 82 15 99 22 175 10 103 10 439 -1 530 -4
39 -9 84 -11 100 -3 29 -14 100 -20 140 -13 74 -58 265 -77 325 -11 35 -14 48
-17 63 0 4 -7 23 -15 42 -9 20 -15 36 -15 38 0 3 -11 35 -49 132 -61 159 -246
512 -274 523 -4 2 -8 8 -8 13 0 11 -111 165 -174 244 -70 86 -108 127 -216
235 -107 106 -168 161 -275 248 -51 41 -167 122 -175 122 -5 0 -10 4 -10 8 0
5 -12 15 -27 23 -16 7 -41 23 -58 34 -46 31 -66 42 -120 71 l-49 26 33 -38
c19 -21 44 -49 57 -63 13 -14 21 -27 19 -29 -2 -2 -19 13 -37 34 -80 92 -273
273 -393 366 -5 5 -28 22 -50 40 -139 109 -387 253 -590 343 -106 47 -354 134
-425 149 -14 3 -45 10 -70 16 -25 5 -55 12 -68 14 -13 3 -31 7 -40 10 -9 3
-39 8 -67 11 -27 4 -57 8 -66 11 -9 3 -36 7 -60 9 -24 3 -60 8 -79 11 -38 6
-526 14 -532 9z m2515 -1060 c23 -32 17 -32 -13 0 -13 14 -19 25 -14 25 5 0
17 -12 27 -25z m41 -51 c3 -8 2 -12 -4 -9 -6 3 -10 10 -10 16 0 14 7 11 14 -7z
m45 -58 c-3 -3 -11 5 -18 17 -13 21 -12 21 5 5 10 -10 16 -20 13 -22z m56 -74
c-3 -3 -11 0 -18 7 -9 10 -8 11 6 5 10 -3 15 -9 12 -12z m-1200 -10 c-3 -3
-11 0 -18 7 -9 10 -8 11 6 5 10 -3 15 -9 12 -12z m86 -49 c13 -16 12 -17 -3
-4 -17 13 -22 21 -14 21 2 0 10 -8 17 -17z m94 -71 c-3 -3 -11 0 -18 7 -9 10
-8 11 6 5 10 -3 15 -9 12 -12z m35 -17 c11 -13 10 -14 -4 -9 -9 3 -16 10 -16
15 0 13 6 11 20 -6z m55 -45 c10 -11 16 -20 13 -20 -3 0 -13 9 -23 20 -10 11
-16 20 -13 20 3 0 13 -9 23 -20z m46 -37 c13 -16 12 -17 -3 -4 -10 7 -18 15
-18 17 0 8 8 3 21 -13z m69 -53 c0 -5 -2 -10 -4 -10 -3 0 -8 5 -11 10 -3 6 -1
10 4 10 6 0 11 -4 11 -10z m35 -30 c10 -11 16 -20 13 -20 -3 0 -13 9 -23 20
-10 11 -16 20 -13 20 3 0 13 -9 23 -20z m70 -70 l20 -25 -22 19 c-13 11 -23
24 -23 29 0 6 1 8 3 6 1 -2 11 -15 22 -29z m127 -125 c6 -11 9 -18 6 -15 -2 3
-29 32 -58 65 l-54 60 48 -45 c26 -25 52 -54 58 -65z m61 -64 c-4 -6 -43 30
-43 40 0 5 10 -2 23 -14 13 -12 22 -24 20 -26z m93 -105 c19 -22 32 -41 30
-43 -2 -2 -23 20 -47 49 -24 29 -50 59 -56 66 -7 7 -13 16 -13 20 0 4 12 -6
26 -23 14 -16 41 -48 60 -69z m55 -73 c13 -16 12 -17 -3 -4 -10 7 -18 15 -18
17 0 8 8 3 21 -13z m54 -69 c66 -100 77 -118 63 -104 -26 27 -109 150 -101
150 4 -1 22 -21 38 -46z m105 -155 c0 -5 15 -32 34 -61 48 -76 137 -248 129
-248 -5 0 -1 -5 7 -11 13 -9 13 -10 0 -6 -8 2 -15 8 -16 13 0 16 -43 102 -95
191 -95 163 -92 158 -75 144 9 -7 16 -17 16 -22z m199 -379 c24 -47 25 -50 9
-50 -6 0 -8 3 -5 7 4 3 1 16 -6 27 -15 24 -28 56 -23 56 2 0 13 -18 25 -40z
m-4475 5 c-4 -8 -8 -15 -10 -15 -2 0 -4 7 -4 15 0 8 4 15 10 15 5 0 7 -7 4
-15z m4532 -153 c-6 -5 -36 65 -36 82 0 6 9 -9 20 -33 11 -24 18 -46 16 -49z
m-4573 28 c-3 -11 -10 -23 -16 -27 -5 -3 -8 -2 -5 3 3 5 8 17 11 27 9 24 16
22 10 -3z m4613 -125 c10 -33 19 -62 19 -65 1 -3 9 -32 19 -65 10 -33 19 -67
21 -75 2 -8 8 -33 13 -55 14 -53 43 -192 47 -230 3 -16 7 -50 10 -75 4 -25 8
-59 10 -75 20 -157 20 -496 0 -604 -1 -9 -6 -43 -10 -76 -12 -113 -36 -230
-72 -365 -19 -74 -38 -145 -40 -157 -3 -13 -9 -23 -14 -23 -11 0 -6 33 9 70 9
21 24 78 23 87 0 2 4 17 9 34 8 25 6 30 -5 25 -13 -5 -13 -2 0 18 17 25 32 71
41 121 2 17 7 37 9 45 2 8 7 38 10 65 3 28 9 64 12 80 3 17 7 41 8 55 2 14 6
61 11 105 10 99 10 354 0 455 -4 41 -9 96 -11 122 -5 53 -9 81 -31 193 -21
109 -21 107 -49 215 -14 52 -27 102 -29 110 -2 8 -16 46 -29 84 -14 38 -20 63
-13 55 7 -8 21 -41 32 -74z m-4626 61 c0 -3 -4 -8 -10 -11 -5 -3 -10 -1 -10 4
0 6 5 11 10 11 6 0 10 -2 10 -4z m-35 -115 c-4 -23 -10 -43 -14 -45 -4 -3 -3
17 3 44 12 59 21 59 11 1z m-19 -92 c-2 -17 -7 -34 -11 -37 -3 -3 -3 5 -1 19
2 13 5 30 5 37 1 6 4 12 7 12 3 0 3 -14 0 -31z m-6 -59 c0 -5 -4 -10 -10 -10
-5 0 -10 5 -10 10 0 6 5 10 10 10 6 0 10 -4 10 -10z m-15 -77 c-3 -32 -8 -70
-11 -84 -4 -30 -16 -233 -15 -266 0 -13 -4 -23 -10 -23 -6 0 -8 24 -5 68 3 37
8 101 11 142 3 41 7 84 9 95 2 11 7 44 11 73 4 28 9 52 12 52 3 0 2 -26 -2
-57z m-26 -430 c-3 -61 9 -225 22 -328 6 -44 12 -92 14 -107 10 -77 62 -315
80 -366 2 -7 4 -13 4 -15 -1 -1 5 -18 13 -37 8 -19 15 -38 16 -43 3 -26 114
-300 149 -366 12 -23 16 -38 9 -32 -37 31 -205 471 -236 616 -4 22 -17 83 -28
135 -12 52 -24 122 -28 155 -3 33 -8 69 -11 80 -15 72 -25 355 -12 355 5 0 9
-21 8 -47z m4742 -975 c-4 -12 -14 -24 -22 -26 -9 -2 -10 -1 -3 5 6 4 13 16
17 26 3 9 9 17 11 17 3 0 2 -10 -3 -22z m-28 -45 c-7 -2 -13 -9 -13 -15 0 -5
-9 -21 -20 -35 -11 -14 -20 -21 -20 -15 0 6 5 14 11 17 5 4 14 18 19 31 5 13
15 24 22 23 10 0 10 -2 1 -6z m-4942 -80 c13 -16 12 -17 -3 -4 -10 7 -18 15
-18 17 0 8 8 3 21 -13z m4858 -48 c-18 -24 -39 -52 -49 -62 -9 -10 -21 -26
-26 -34 -45 -79 -304 -346 -439 -454 -27 -22 -52 -42 -55 -46 -3 -3 -23 -18
-45 -35 -22 -16 -44 -33 -50 -37 -48 -37 -120 -87 -126 -87 -4 0 -14 -6 -21
-13 -12 -12 -38 -28 -128 -80 -75 -43 -260 -136 -260 -131 0 4 -7 0 -16 -7 -9
-7 -30 -19 -48 -25 -17 -6 -69 -26 -116 -44 -47 -18 -92 -33 -100 -35 -8 -1
-28 -8 -45 -14 -34 -14 -162 -50 -203 -57 -15 -3 -47 -10 -72 -15 -91 -21 -71
-18 -220 -39 -240 -34 -593 -32 -820 6 -52 8 -105 17 -118 19 -12 2 -30 6 -40
9 -9 3 -33 7 -52 10 -128 19 -493 146 -663 231 -27 14 -51 25 -53 25 -13 0
187 -183 273 -250 39 -30 69 -57 67 -59 -2 -3 -17 7 -32 21 -15 14 -49 42 -77
62 -27 21 -94 79 -149 129 -54 51 -124 106 -155 123 -126 69 -343 210 -361
234 -3 4 -12 11 -21 16 -20 11 -102 78 -142 116 -16 16 -30 28 -33 28 -4 0
-144 141 -227 229 -91 97 -36 51 86 -72 67 -68 150 -148 185 -177 92 -79 255
-200 270 -200 6 0 12 -4 12 -9 0 -8 167 -109 240 -146 l35 -17 -45 48 c-25 27
-59 63 -77 81 -18 18 -29 33 -25 33 4 0 2 4 -4 8 -14 9 -164 201 -164 210 0 7
7 0 51 -58 43 -57 60 -78 135 -164 115 -135 147 -162 224 -199 87 -42 227 -99
285 -117 22 -7 45 -15 50 -19 6 -3 12 -6 15 -6 10 -2 156 -46 180 -55 14 -5
39 -11 55 -14 17 -2 31 -5 33 -6 1 -2 5 -3 10 -4 26 -6 90 -19 107 -22 11 -2
49 -8 85 -14 267 -47 568 -52 850 -15 97 12 127 17 142 21 10 3 30 7 45 10 16
2 39 7 53 10 14 3 36 8 50 10 14 3 34 8 45 11 25 9 22 8 70 18 22 4 45 11 50
15 6 4 26 11 45 16 45 10 40 9 73 22 16 7 30 12 33 12 11 0 208 82 284 118
236 113 427 238 659 430 104 86 333 327 403 423 17 24 35 48 40 54 5 5 17 21
28 34 11 13 20 28 20 33 0 4 5 8 11 8 5 0 -4 -20 -22 -45z m-4811 -30 c-3 -3
-9 2 -12 12 -6 14 -5 15 5 6 7 -7 10 -15 7 -18z m4886 -52 c-14 -38 -26 -73
-28 -80 -1 -7 -5 -16 -9 -19 -4 -4 -7 -14 -7 -22 0 -7 -27 -71 -61 -140 -83
-174 -103 -212 -111 -212 -4 0 12 37 35 83 56 108 169 370 172 397 3 25 17 60
25 60 5 0 -2 -30 -16 -67z m-4860 31 c3 -8 2 -12 -4 -9 -6 3 -10 10 -10 16 0
14 7 11 14 -7z m92 -116 c13 -14 24 -29 24 -32 0 -10 -32 24 -74 79 -38 50
-33 45 50 -47z m399 -24 c9 -15 12 -23 6 -20 -11 7 -35 46 -28 46 3 0 12 -12
22 -26z m44 -76 c12 -21 20 -38 18 -38 -7 0 -47 65 -47 75 0 10 1 8 29 -37z
m50 -88 l23 -35 -26 30 c-14 17 -26 34 -26 39 0 11 0 11 29 -34z m36 -50 c3
-5 1 -10 -4 -10 -6 0 -11 5 -11 10 0 6 2 10 4 10 3 0 8 -4 11 -10z m35 -64 c0
-12 -5 -7 -19 24 -11 24 -11 24 3 6 9 -11 16 -24 16 -30z m3955 -151 c-15 -25
-30 -44 -32 -41 -3 3 4 17 14 33 11 15 23 37 27 47 3 10 9 16 12 13 3 -3 -6
-26 -21 -52z m-53 -85 c-9 -16 -20 -30 -24 -30 -4 0 1 13 10 30 9 16 20 30 24
30 4 0 -1 -13 -10 -30z m-58 -89 c-16 -22 -33 -41 -37 -41 -4 0 7 20 25 44 41
55 51 52 12 -3z m-80 -106 c-20 -25 -38 -45 -41 -45 -7 0 62 89 70 90 5 0 -8
-20 -29 -45z m-84 -105 c-23 -27 -44 -50 -47 -50 -3 0 14 23 37 50 23 28 44
50 47 50 3 0 -14 -22 -37 -50z m-50 -64 c0 -2 -8 -10 -17 -17 -16 -13 -17 -12
-4 4 13 16 21 21 21 13z m-50 -49 c0 -2 -10 -12 -22 -23 l-23 -19 19 23 c18
21 26 27 26 19z m-90 -101 c0 -2 -7 -7 -16 -10 -8 -3 -12 -2 -9 4 6 10 25 14
25 6z m-2705 -56 c10 -11 16 -20 13 -20 -3 0 -13 9 -23 20 -10 11 -16 20 -13
20 3 0 13 -9 23 -20z m2645 7 c0 -2 -10 -12 -22 -23 l-23 -19 19 23 c18 21 26
27 26 19z m-2595 -37 c3 -6 -1 -7 -9 -4 -18 7 -21 14 -7 14 6 0 13 -4 16 -10z
m2525 -34 c0 -2 -8 -10 -17 -17 -16 -13 -17 -12 -4 4 13 16 21 21 21 13z
m-2396 -55 c-2 -3 -12 3 -22 13 -16 17 -16 18 5 5 12 -7 20 -15 17 -18z m141
-79 c-3 -3 -11 0 -18 7 -9 10 -8 11 6 5 10 -3 15 -9 12 -12z m144 -69 c2 -2 0
-3 -6 -3 -6 0 -21 9 -34 21 l-24 20 30 -17 c17 -10 32 -19 34 -21z m76 -31
c-3 -3 -11 0 -18 7 -9 10 -8 11 6 5 10 -3 15 -9 12 -12z m57 -17 c3 0 9 -3 13
-7 4 -3 0 -5 -9 -4 -9 1 -22 8 -29 16 -10 10 -9 11 3 4 8 -5 18 -9 22 -9z m83
-36 c5 -5 -5 -4 -23 2 -17 6 -32 13 -32 16 0 7 43 -8 55 -18z m95 -30 c36 -11
70 -22 77 -23 15 -3 30 -16 17 -16 -14 1 -180 58 -169 59 6 0 39 -9 75 -20z
m199 -54 c187 -42 249 -53 289 -55 6 0 12 -4 12 -9 0 -13 -46 -6 -229 35 -114
26 -161 40 -161 48 0 2 16 0 36 -6 20 -5 44 -11 53 -13z"/>
</g>
</svg>
